# xmcd
#
# Track frame offsets: 
#        150
#        6026
#        30401
#        52354
#        77498
#        99737
#        111364
#        131689
#        158713
#
# Disc length: 2367 seconds
#
# Revision: 0
# Processed by: cddbd v1.5.2PL0 Copyright (c) Steve Scherf et al.
# Submitted via: ExactAudioCopy v0.95b4
#
DISCID=6d093d09
DTITLE=Jeff Beck and friends - Two nights at Ronnie Scott's - cd 2
DYEAR=2007
DGENRE=Blues
TTITLE0=Goodbye pork pie hat
TTITLE1=Brush with the Blues
TTITLE2=Space Boogie
TTITLE3=Big block
TTITLE4=A day in the life
TTITLE5=Introduction of E. Clapton by J. Beck
TTITLE6=Little brown bird (with Eric Clapton)
TTITLE7=You need your love (with Eric Clapton)
TTITLE8=Where were you
EXTD=
EXTT0=
EXTT1=
EXTT2=
EXTT3=
EXTT4=
EXTT5=
EXTT6=
EXTT7=
EXTT8=
PLAYORDER=
